<?xml version="1.0" encoding="utf-8"?>
<!-- Generator: Adobe Illustrator 27.2.0, SVG Export Plug-In . SVG Version: 6.00 Build 0)  -->
<svg version="1.1" id="Layer_1" xmlns="http://www.w3.org/2000/svg" xmlns:xlink="http://www.w3.org/1999/xlink" x="0px" y="0px"
	 viewBox="0 0 150 150" style="enable-background:new 0 0 150 150;" xml:space="preserve">
<style type="text/css">
	.st0{fill:#FFFFFF;}
</style>
<path class="st0" d="M82,77.5c0-0.1,0-0.2,0-0.3c0.1-13.7,7.6-24.8,21.5-24.8c8.8,0,14.5,3.1,18,10.8h21.8
	c-4.2-22.4-22.4-31.8-39.8-31.9c-12.1,0-24.2,4.7-32.8,14C63.8,52.8,59.3,63.4,59.1,77v0.9c-0.2,12.2-7.2,24.2-21.1,24.2h-10V72.8
	v-20h10c6.9,0,12.1,2.9,15.6,7.4c2.2-7.8,6-14.7,11.2-20.5c-6.7-5.2-15.4-8.4-26.1-8.4H5.3l0,41.5v50.8h33.4
	c14.1-0.1,24.8-5.6,32-13.9C78.1,101,81.9,89.4,82,77.7C82,77.7,82,77.6,82,77.5 M144.5,71.2h-40.9v20H122
	c-4,8.6-9.6,11.1-18.5,11.1c-6.8,0-12.3-2.6-16-7.2c-2.2,7.5-5.9,14.4-10.7,20c7.8,5.7,17.3,8.6,26.7,8.6c15.9,0,32.4-7.2,38.6-26
	C145,88.9,145,80.2,144.5,71.2"/>
</svg>
